<svg width="18" height="18" viewBox="0 0 18 18" fill="none" xmlns="http://www.w3.org/2000/svg">
<g clip-path="url(#clip0_4213_14301)">
<path d="M14.498 4.34766C14.6828 4.34786 14.8605 4.41861 14.9949 4.54545C15.1292 4.67229 15.2101 4.84564 15.2209 5.03009C15.2317 5.21454 15.1717 5.39616 15.0531 5.53785C14.9345 5.67953 14.7663 5.77059 14.5829 5.79241L14.498 5.79749H14.4393L13.7731 13.7716C13.7732 14.3263 13.5612 14.86 13.1807 15.2636C12.8001 15.6672 12.2797 15.9101 11.726 15.9427L11.5984 15.9463H5.79906C4.64065 15.9463 3.69391 15.0409 3.63012 13.9528L3.62649 13.8317L2.9574 5.79749H2.8994C2.71464 5.79728 2.53692 5.72653 2.40257 5.59969C2.26822 5.47286 2.18737 5.2995 2.17654 5.11505C2.16571 4.93061 2.22572 4.74898 2.34431 4.6073C2.4629 4.46561 2.63112 4.37455 2.81459 4.35273L2.8994 4.34766H14.498Z" fill="#94A3B8"/>
<path d="M10.1488 1.44922C10.5333 1.44922 10.9021 1.60197 11.174 1.87386C11.4459 2.14576 11.5986 2.51453 11.5986 2.89905C11.5984 3.08381 11.5277 3.26153 11.4008 3.39588C11.274 3.53024 11.1007 3.61109 10.9162 3.62191C10.7318 3.63274 10.5501 3.57273 10.4084 3.45414C10.2668 3.33555 10.1757 3.16734 10.1539 2.98386L10.1488 2.89905H7.24915L7.24407 2.98386C7.22225 3.16734 7.13119 3.33555 6.98951 3.45414C6.84782 3.57273 6.6662 3.63274 6.48175 3.62191C6.2973 3.61109 6.12395 3.53024 5.99711 3.39588C5.87027 3.26153 5.79952 3.08381 5.79932 2.89905C5.7992 2.53327 5.93734 2.18097 6.18606 1.91277C6.43477 1.64456 6.77566 1.48028 7.14041 1.45284L7.24915 1.44922H10.1488Z" fill="#94A3B8"/>
</g>
<defs>
<clipPath id="clip0_4213_14301">
<rect width="17.398" height="17.398" fill="white"/>
</clipPath>
</defs>
</svg>
